# xmcd CD database file generated by OrangeCD 5.2
#
# Track frame offsets:
#	180
#	10646
#	29097
#	43348
#	61267
#	76046
#	91276
#	105744
#	117071
#	134326
#	148194
#	162906
#	178052
#	190140
#	204596
#	213523
#	225909
#	234298
#
# Disc length: 3374 seconds
#
# Revision: 2
# Processed by: cddbd v1.5.1PL0 Copyright (c) Steve Scherf et al.
# Submitted via: OrangeCD 5.2
#
DISCID=ee0d2c12
DTITLE=The Silver King Band - Live At The Dive
DYEAR=1983
DGENRE=Blues
TTITLE0=Ooba La Baby
TTITLE1=Walk My Blues Away
TTITLE2=Shake That Thing
TTITLE3=I Want a Hot Dog (For My Roll)
TTITLE4=Hoy Hoy
TTITLE5=Boogie Woogie U.F.O.
TTITLE6=Brown Skin Women
TTITLE7=Monkey Hips and Rice
TTITLE8=Alligator Love Call
TTITLE9=Slow Down Woman
TTITLE10=Have You Ever Been Lonely
TTITLE11=It Ain't The Meat (It's The Motion)
TTITLE12=You Do It
TTITLE13=Sixty Minute Man
TTITLE14=I'm Walkin'
TTITLE15=Hop, Skip, and a Jump
TTITLE16=Youse a Viper
TTITLE17=Cafe Society Blues
EXTD=
EXTT0=
EXTT1=
EXTT2=
EXTT3=
EXTT4=
EXTT5=
EXTT6=
EXTT7=
EXTT8=
EXTT9=
EXTT10=
EXTT11=
EXTT12=
EXTT13=
EXTT14=
EXTT15=
EXTT16=
EXTT17=
PLAYORDER=
